<?xml version="1.0" encoding="UTF-8" standalone="no"?>
<!-- Created with Inkscape (http://www.inkscape.org/) -->

<svg
   xmlns:dc="http://purl.org/dc/elements/1.1/"
   xmlns:cc="http://creativecommons.org/ns#"
   xmlns:rdf="http://www.w3.org/1999/02/22-rdf-syntax-ns#"
   xmlns:svg="http://www.w3.org/2000/svg"
   xmlns="http://www.w3.org/2000/svg"
   xmlns:sodipodi="http://sodipodi.sourceforge.net/DTD/sodipodi-0.dtd"
   xmlns:inkscape="http://www.inkscape.org/namespaces/inkscape"
   width="128.13643"
   height="384.46011"
   id="svg2"
   version="1.1"
   inkscape:version="0.48.4 r9939"
   sodipodi:docname="New document 1">
  <defs
     id="defs4" />
  <sodipodi:namedview
     id="base"
     pagecolor="#ffffff"
     bordercolor="#666666"
     borderopacity="1.0"
     inkscape:pageopacity="0.0"
     inkscape:pageshadow="2"
     inkscape:zoom="0.52011662"
     inkscape:cx="63.779338"
     inkscape:cy="357.34388"
     inkscape:document-units="px"
     inkscape:current-layer="layer1"
     showgrid="false"
     fit-margin-top="0"
     fit-margin-left="0"
     fit-margin-right="0"
     fit-margin-bottom="0"
     inkscape:window-width="1280"
     inkscape:window-height="749"
     inkscape:window-x="0"
     inkscape:window-y="26"
     inkscape:window-maximized="1" />
  <metadata
     id="metadata7">
    <rdf:RDF>
      <cc:Work
         rdf:about="">
        <dc:format>image/svg+xml</dc:format>
        <dc:type
           rdf:resource="http://purl.org/dc/dcmitype/StillImage" />
        <dc:title></dc:title>
      </cc:Work>
    </rdf:RDF>
  </metadata>
  <g
     inkscape:label="Layer 1"
     inkscape:groupmode="layer"
     id="layer1"
     transform="translate(-196.49048,-379.5384)">
    <path
       style="fill:#000000"
       d="m 248.5,400.6875 0.21875,10.28125 c 0.54518,25.2727 0.51927,28.26393 -0.40625,28.875 -1.77765,1.17369 -2.25585,5.21067 -0.6875,5.8125 1.72372,0.66146 1.36824,7.40516 -0.5,9.65625 -0.64406,0.77605 -0.86544,2.24904 -0.5,3.28125 0.54425,1.53731 0.41602,1.64892 -0.6875,0.625 -2.14206,-1.98754 -5.3877,-1.43564 -7.75,1.28125 -2.3309,2.68076 -2.81405,4.46875 -1.1875,4.46875 0.55,0 1,1.32502 1,2.9375 0,2.53801 0.34925,2.88889 2.53125,2.65625 1.3863,-0.1478 3.0738,-0.96798 3.75,-1.84375 0.67621,-0.87577 2.34375,-1.72984 3.71875,-1.90625 1.70657,-0.21895 2.59437,-1.05784 2.8125,-2.59375 0.17575,-1.2375 -0.16175,-2.25 -0.75,-2.25 -0.58825,0 -1.0625,-0.37002 -1.0625,-0.84375 0,-1.11712 4.84285,-0.20303 5.625,1.0625 0.32894,0.53226 0.11207,1.48167 -0.5,2.09375 -0.61208,0.61208 -1.125,2.38843 -1.125,3.96875 0,2.22098 -0.39732,2.77541 -1.75,2.46875 -0.9625,-0.21821 -2.97827,0.22197 -4.5,0.96875 -2.32289,1.13994 -2.62309,1.68112 -1.75,3.3125 0.82938,1.54972 0.74684,1.81748 -0.40625,1.375 -0.7952,-0.30515 -1.66848,-1.18627 -1.96875,-1.96875 -0.79279,-2.06598 -2.18195,-1.75554 -5.0625,1.125 -2.78217,2.78218 -3.16167,5.42906 -1.4375,10.375 0.83231,2.38758 0.83231,3.51144 0,4.34375 -1.52682,1.52681 -1.3997,4.96265 0.25,7.21875 1.15574,1.58057 1.11849,2.31384 -0.25,4.9375 -0.88446,1.69568 -1.97718,3.33813 -2.40625,3.65625 -0.42907,0.31811 -0.11756,1.85449 0.6875,3.40625 1.75282,3.37856 1.31025,8.54456 -0.84375,9.75 -2.12736,1.19053 -1.95504,3.45144 0.4375,5.5 2.22019,1.90098 2.69466,7.12296 0.9375,10.40625 -0.81816,1.52875 -0.69468,2.56651 0.53125,4.4375 1.52541,2.32808 1.46578,2.55396 -0.9375,4.78125 L 232,546.6875 l 2.46875,2.65625 c 1.34581,1.45215 2.92374,2.625 3.5,2.625 2.04186,0 0.99659,1.87287 -1.21875,2.1875 -1.51306,0.21489 -2.25,1.00188 -2.25,2.40625 0,1.1486 -0.53812,2.76927 -1.21875,3.59375 -1.0141,1.22841 -0.81741,1.89206 1.09375,3.6875 2.22042,2.08598 2.75203,2.1318 11.0625,1.1875 4.80085,-0.54551 10.08927,-1.65593 11.78125,-2.5 3.29495,-1.64374 5.32486,-0.90166 6.65625,2.5 0.35098,0.89674 3.1,3.69806 6.125,6.21875 3.025,2.52069 5.725,4.6033 6,4.625 0.275,0.0217 1.36939,-0.62964 2.4375,-1.4375 1.88253,-1.42386 1.84425,-1.53033 -1.25,-4.09375 -1.75561,-1.45441 -3.1875,-3.25477 -3.1875,-4 0,-0.74524 -1.0125,-1.38875 -2.25,-1.40625 -2.49894,-0.0353 -6.46199,-2.60052 -5.5,-3.5625 0.33797,-0.33798 3.36189,-0.62465 6.71875,-0.65625 6.1564,-0.058 9.00774,-1.42214 5.125,-2.4375 -3.33816,-0.87295 -2.49035,-2.62307 0.9375,-1.9375 2.22948,0.4459 3.21691,0.17617 3.65625,-0.96875 0.70806,-1.84518 -1.37451,-4.10026 -4.1875,-4.5625 -1.55604,-0.2557 -1.93533,0.1557 -1.75,1.90625 0.29379,2.775 -0.0359,2.79938 -5.625,0.0937 -4.60744,-2.23042 -15.70895,-3.58569 -14.59375,-1.78125 1.26987,2.05469 -2.69599,2.16202 -4.59375,0.125 -2.5313,-2.71702 -2.46155,-3.55284 0.25,-2.84375 1.20888,0.31613 2.77392,0.10791 3.46875,-0.46875 0.88612,-0.73541 2.35205,-0.68672 4.90625,0.15625 3.08937,1.01958 3.89115,0.9526 5.25,-0.40625 1.46893,-1.46893 1.44874,-1.70703 -0.34375,-3.0625 -1.07498,-0.81288 -2.69859,-1.51375 -3.59375,-1.53125 -0.89515,-0.0175 -2.22031,-0.72958 -2.9375,-1.59375 -0.71719,-0.86416 -2.66022,-2.12554 -4.34375,-2.8125 l -3.0625,-1.25 4.875,-1.25 c 2.89798,-0.72972 5.248,-0.84575 5.78125,-0.3125 1.00255,1.00255 8.8125,-0.74266 8.8125,-1.96875 0,-0.4143 -1.9125,-1.27136 -4.25,-1.90625 -2.3375,-0.6349 -4.8125,-1.30508 -5.5,-1.5 -0.6875,-0.19493 -1.25,-0.77283 -1.25,-1.28125 0,-1.36422 3.40078,-2.45391 3.8125,-1.21875 0.19382,0.58148 1.03293,1.0625 1.84375,1.0625 0.81082,0 3.47464,1.125 5.9375,2.5 2.46286,1.375 5.13202,2.5 5.9375,2.5 2.3759,0 1.67344,-2.97607 -0.9375,-3.96875 -1.32157,-0.50246 -2.70161,-1.38482 -3.0625,-1.96875 -0.36088,-0.58392 -1.9052,-1.0625 -3.4375,-1.0625 -1.5323,0 -3.59826,-0.9 -4.59375,-2 -2.26638,-2.50432 -3.59113,-2.50432 -8.5,0 -2.15618,1.1 -4.62184,2 -5.46875,2 -2.32106,0 -1.83907,-2.74302 0.71875,-4.125 2.54789,-1.37661 11.73124,-2.0777 13.25,-1 1.70321,1.20858 9.79971,0.74613 10.25,-0.59375 0.62135,-1.84886 -4.63867,-3.62321 -6.40625,-2.15625 -1.10919,0.92054 -1.92125,0.6811 -3.84375,-1.125 -1.34193,-1.26067 -2.22358,-2.61894 -1.96875,-3.03125 0.82232,-1.33055 8.83605,1.08356 12.25,3.6875 2.66778,2.03481 3.61025,2.28434 4.78125,1.3125 1.96787,-1.63319 1.81647,-3.61063 -0.3125,-4.34375 -0.9625,-0.33144 -3.28553,-1.51322 -5.15625,-2.65625 -2.59841,-1.58765 -3.56612,-1.79861 -4.15625,-0.84375 -0.61373,0.99306 -1.09838,1.01294 -2.28125,0.0313 -1.18854,-0.9864 -2.17114,-0.96836 -4.9375,0.1875 -1.90591,0.79634 -3.78073,1.95489 -4.15625,2.5625 -0.43883,0.71004 -1.28924,0.79983 -2.375,0.21875 -0.92912,-0.49725 -2.1375,-0.88795 -2.6875,-0.84375 -0.55,0.0441 -1.13454,-0.66967 -1.3125,-1.59375 -0.21512,-1.117 0.28763,-1.63742 1.5,-1.53125 5.01099,0.43881 6.47892,-0.11905 5.8125,-2.21875 -0.60815,-1.91613 -0.40991,-2.00804 3.15625,-1.3125 2.11032,0.41159 4.51875,0.69255 5.34375,0.59375 4.47632,-0.53589 7.54492,-0.97947 7.875,-1.09375 0.92087,-0.31882 -2.27956,-3.125 -3.5625,-3.125 -0.78991,0 -3.18212,-1.38172 -5.3125,-3.09375 -3.43188,-2.75793 -4.39026,-3.05816 -8.4375,-2.5625 -2.60103,0.31855 -4.5625,0.16404 -4.5625,-0.375 0,-0.87468 1.44882,-1.34689 3.25,-1.0625 1.66992,0.26367 0.60623,-2.89038 -1.46875,-4.34375 -2.61819,-1.83386 -2.17194,-1.9231 2,-0.46875 1.68798,0.58843 3.32317,1.71343 3.625,2.5 0.30183,0.78657 1.0614,1.40625 1.6875,1.40625 0.62607,0 0.87909,-0.675 0.5625,-1.5 -0.72203,-1.88157 -0.27036,-1.85491 3.4375,0.0625 2.70073,1.39663 3.10951,1.39049 4.5625,-0.0625 1.47134,-1.47134 1.42655,-1.72246 -0.53125,-3.09375 C 270.95149,490.55303 270,489.48129 270,489 c 0,-1.5461 5.22931,-0.39304 6.21875,1.375 0.75266,1.34492 1.25699,1.45912 2.375,0.53125 2.12504,-1.76362 1.72348,-3.48339 -1.125,-4.78125 -3.78471,-1.72442 -6.56813,-1.40016 -9.15625,1.03125 -1.27295,1.19588 -2.3125,1.64588 -2.3125,1 0,-0.64587 -1.30124,-1.1875 -2.90625,-1.1875 -3.59119,0 -6.09375,-0.89645 -6.09375,-2.1875 0,-0.56319 1.27013,-0.66806 3.03125,-0.28125 1.6885,0.37085 3.61723,0.20203 4.3125,-0.375 1.02768,-0.85289 4.27113,-1.52691 9.90625,-2.0625 1.6385,-0.15573 0.5477,-1.6862 -2.6875,-3.78125 -2.93929,-1.90344 -3.55161,-2.00571 -4.59375,-0.75 -0.66368,0.79968 -1.74118,1.4375 -2.375,1.4375 -1.93914,0 -9.78041,-9.01742 -9.1875,-10.5625 0.74509,-1.94168 3.59251,-1.80307 5.09375,0.25 1.1266,1.54071 1.33167,1.50786 2.40625,-0.5 1.03728,-1.93819 0.86425,-2.31237 -1.4375,-3.1875 -1.45039,-0.55143 -2.30636,-1.46568 -1.9375,-2.0625 0.36373,-0.58855 1.27949,-0.81972 2.03125,-0.53125 2.20548,0.84633 2.7909,-1.35498 0.90625,-3.4375 -1.4689,-1.62311 -1.54075,-2.16426 -0.40625,-3.53125 1.13749,-1.37059 1.10085,-1.75406 -0.34375,-2.5625 C 260.78223,452.31965 260,451.17752 260,450.3125 c 0,-1.2957 -0.27557,-1.35462 -1.53125,-0.3125 -1.95301,1.62085 -2.20278,1.28659 -2.625,-3.40625 -0.35318,-3.92555 0.24262,-4.71429 4.46875,-6.03125 2.25483,-0.70265 1.25372,-2.59375 -1.375,-2.59375 -1.68764,0 -1.9375,-0.71619 -1.9375,-5.53125 0,-5.1616 0.15288,-5.51829 2.25,-5.25 3.00903,0.38495 3.49269,-1.54527 0.5625,-2.25 -1.70769,-0.41071 -2.23885,-1.14528 -2,-2.8125 0.17763,-1.23986 -0.19209,-2.9023 -0.84375,-3.6875 -1.61071,-1.94079 -0.48566,-4.46875 2,-4.46875 2.62273,0 2.55628,-0.38122 -0.5625,-3.5 -2.09491,-2.09491 -2.35462,-2.85089 -1.375,-4.03125 0.66548,-0.80186 2.03105,-1.46875 3.03125,-1.46875 2.87392,0 3.18845,-1.7158 0.4375,-2.40625 -1.3712,-0.34415 -2.5,-1.05423 -2.5,-1.59375 0,-0.0982 0.0339,-0.19832 0.0625,-0.28125 z m 17.3125,69.71875 c -0.45401,0.0647 -0.66304,0.32522 -0.90625,0.71875 -1.11246,1.8 -0.15378,2.84375 2.59375,2.84375 1.31008,0 2.66008,0.45 3,1 0.33992,0.55 1.48939,1 2.53125,1 1.04187,0 2.69932,1.11104 3.6875,2.46875 1.9846,2.72678 3.80139,3.23342 4.5625,1.25 0.49488,-1.28964 -1.72366,-5.11768 -3.0625,-5.28125 -0.38882,-0.0475 -1.61875,-0.45623 -2.71875,-0.875 -6.48402,-2.4685 -8.68867,-3.2674 -9.6875,-3.125 z m 11.25,1.15625 c 0.22391,0.0864 0.44254,0.0919 0.625,0 z m -26.71875,4.875 c 0.30842,-0.0101 0.6368,0.1368 0.96875,0.46875 0.78284,0.78284 0.78284,1.37341 0,2.15625 -0.78285,0.78285 -1.26618,0.78285 -1.75,0 -0.78022,-1.26242 -0.14402,-2.59472 0.78125,-2.625 z M 246.5,484.59375 c 0.55143,0.0149 1.09778,0.60379 1.3125,1.71875 0.19702,1.02303 -0.30911,1.65625 -1.3125,1.65625 -1.02996,0 -1.5233,-0.65539 -1.3125,-1.75 0.2125,-1.10343 0.76107,-1.63989 1.3125,-1.625 z m -2.625,12.625 c 0.3808,-0.0481 0.70981,-0.009 0.875,0.15625 0.24489,0.2449 0.27987,1.06626 0.0937,1.8125 C 244.49058,500.60354 241,500.43137 241,499 c 0,-0.71278 1.73259,-1.63694 2.875,-1.78125 z m 26.65625,0.1875 C 269.05806,497.39489 268,497.60311 268,497.9375 c 0,1.3605 2.84927,3.247 3.90625,2.59375 0.5465,-0.33775 1.4968,0.29085 2.09375,1.40625 1.22475,2.28847 6,2.8369 6,0.6875 0,-2.37028 -3.64556,-4.73786 -7.875,-5.125 -0.56489,-0.0517 -1.10269,-0.09 -1.59375,-0.0937 z m -22.15625,5.5625 c 2.28198,0 7.70488,2.57636 6.96875,3.3125 -0.77233,0.77233 -0.68169,0.79116 -5.09375,-0.65625 -3.29454,-1.08079 -4.40972,-2.65625 -1.875,-2.65625 z m -6.5,10 c 1.21995,0 2.125,0.63782 2.125,1.5 0,0.825 -0.39234,1.5 -0.875,1.5 -0.48265,0 -1.44031,-0.675 -2.125,-1.5 -1.04007,-1.2532 -0.89824,-1.5 0.875,-1.5 z m 38,10.5625 c -1.02907,-0.034 -2.1548,0.22986 -3.03125,0.84375 -2.05283,1.43785 -1.46632,2.59375 1.3125,2.59375 1.00833,0 1.84375,0.45 1.84375,1 0,0.55 0.45,1 1,1 0.55,0 1,-0.40124 1,-0.90625 0,-0.50502 0.25639,-1.5773 0.5625,-2.375 0.47975,-1.25021 -0.97239,-2.0996 -2.6875,-2.15625 z m -37.5,0.90625 c 0.50974,-0.0323 0.625,0.41583 0.625,1.5 0,1.11935 -0.64496,2.03125 -1.4375,2.03125 -2.39109,0 -2.75715,-1.81094 -0.59375,-2.96875 0.64821,-0.34691 1.10041,-0.54312 1.40625,-0.5625 z M 267,537 c -0.60951,0.009 -1.23074,0.26181 -2.0625,0.78125 -1.53187,0.95667 -2.4553,1.03391 -3.4375,0.21875 -0.84804,-0.70381 -1.55228,-0.7483 -1.9375,-0.125 -0.33294,0.53871 -0.009,1.33365 0.6875,1.78125 2.84062,1.8256 6.04124,3.3125 7.125,3.3125 0.63321,0 2.73983,0.86906 4.65625,1.9375 4.29486,2.39445 4.43229,2.41382 5.96875,0.5625 0.68469,-0.825 1.80969,-1.5 2.5,-1.5 2.67028,0 3.4296,-2.45205 1.53125,-4.96875 -1.56071,-2.06908 -2.09108,-2.21118 -3.4375,-1.09375 -0.87081,0.72271 -1.33266,1.69982 -1.03125,2.1875 0.3014,0.48768 -0.14254,0.875 -1,0.875 -0.85746,0 -1.5625,-0.45 -1.5625,-1 0,-0.55 -0.89254,-1 -2,-1 -1.10746,0 -2.90746,-0.53645 -4,-1.21875 -0.79497,-0.49647 -1.39049,-0.75861 -2,-0.75 z m -24.5625,0.96875 c 0.79254,0 1.72258,0.45 2.0625,1 0.33992,0.55 -0.30504,1 -1.4375,1 -1.13246,0 -2.0625,-0.45 -2.0625,-1 0,-0.55 0.64496,-1 1.4375,-1 z m 18.15625,16.09375 c 0.30184,0.0112 0.75746,0.0574 1.34375,0.125 1.33192,0.15367 2.58608,0.84375 2.8125,1.53125 0.56018,1.701 -0.96199,1.5707 -3.3125,-0.28125 -1.40983,-1.11079 -1.74926,-1.40861 -0.84375,-1.375 z m 7.84375,1.90625 c 0.24254,0 0.72258,0.45 1.0625,1 0.33992,0.55 0.14496,1 -0.4375,1 -0.58246,0 -1.0625,-0.45 -1.0625,-1 0,-0.55 0.19496,-1 0.4375,-1 z m 9.53125,7.46875 c -1.5747,0.15536 -2.30636,1.24201 -1.6875,2.84375 0.67801,1.75482 6.43391,1.907 7.09375,0.1875 0.62031,-1.6165 0.19357,-1.94699 -3.5625,-2.84375 -0.69363,-0.16561 -1.31885,-0.23929 -1.84375,-0.1875 z M 259.75,564.71875 c -0.41177,0.1375 -1.4131,0.25 -2.21875,0.25 -0.80565,0 -1.95295,0.95479 -2.5625,2.09375 -0.93586,1.74867 -0.67791,2.42302 1.59375,4.375 2.40922,2.07018 2.72776,3.14165 3.09375,10.1875 0.2794,5.37877 0.86711,8.20972 1.875,8.96875 0.81083,0.61064 1.46875,2.24048 1.46875,3.625 0,1.38452 0.675,3.06531 1.5,3.75 0.825,0.68469 1.5,2.1335 1.5,3.21875 0,1.08526 0.84716,3.1651 1.875,4.625 1.02785,1.4599 2.16316,3.62581 2.53125,4.8125 0.3681,1.18669 1.32093,2.41021 2.125,2.71875 0.80406,0.30855 1.46875,1.18048 1.46875,1.9375 0,0.75702 0.86072,2.14756 1.90625,3.09375 1.04554,0.9462 2.16632,3.19008 2.5,4.96875 0.38122,2.0321 2.32416,4.89085 5.21875,7.6875 2.5336,2.44788 5.22961,5.7875 6,7.4375 0.77039,1.65 1.80784,3.675 2.3125,4.5 0.50465,0.825 2.37248,5.1 4.125,9.5 1.75253,4.4 3.9026,9.35 4.78125,11 0.87865,1.65 1.6705,3.9 1.78125,5 0.11074,1.1 0.66495,3.7706 1.21875,5.90625 0.59118,2.27982 0.66167,4.79563 0.15625,6.125 -0.47346,1.2453 -0.62674,2.49827 -0.34375,2.78125 0.91031,0.91031 1.18464,6.15459 0.375,7.1875 -0.43111,0.55 -1.10591,2.575 -1.5,4.5 -0.39408,1.925 -2.03058,5.5706 -3.625,8.09375 -1.59442,2.52315 -2.90625,5.15622 -2.90625,5.84375 0,1.32543 -8.90779,9.96385 -10.34375,10.03125 -0.4653,0.0218 -4.1622,1.60625 -8.21875,3.53125 -4.05655,1.925 -8.6631,3.5 -10.21875,3.5 -1.55565,0 -3.28496,0.50371 -3.875,1.09375 -0.73134,0.73134 -2.3256,0.74506 -4.96875,0.0937 -4.30296,-1.06033 -7.88711,-0.94786 -10.75,0.3125 -1.2957,0.57042 -2.24403,0.369 -3,-0.65625 -0.60796,-0.82452 -2.15334,-2.05132 -3.40625,-2.71875 -1.2529,-0.66743 -1.99274,-1.67431 -1.65625,-2.21875 0.37265,-0.60296 -0.30657,-0.73728 -1.75,-0.375 -1.77049,0.44436 -3.05036,-0.12332 -5.03125,-2.21875 -5.23833,-5.54122 -5.89587,-5.85727 -7.53125,-3.71875 -1.36905,1.79024 -1.43876,1.7049 -1.03125,-1.34375 0.25698,-1.9225 -0.0655,-3.72381 -0.8125,-4.34375 -0.69862,-0.57978 -1.04366,-1.67223 -0.75,-2.4375 0.29366,-0.76526 -0.40925,-2.72416 -1.5625,-4.34375 -1.16677,-1.63857 -1.81114,-3.63898 -1.46875,-4.53125 0.33843,-0.88194 0.0539,-2.27576 -0.625,-3.09375 -0.90801,-1.0941 -0.93825,-1.8326 -0.125,-2.8125 0.81634,-0.98364 0.73312,-1.81176 -0.25,-3.15625 -1.48244,-2.02736 -3.625,-1.28466 -3.625,1.25 0,1.23556 -0.29138,1.33362 -1.15625,0.46875 -0.86488,-0.86487 -0.69675,-1.82825 0.6875,-3.9375 1.01116,-1.54074 1.97864,-3.9375 2.125,-5.3125 0.14636,-1.375 1.1173,-3.18717 2.15625,-4.03125 2.47425,-2.0102 3.14585,-4.05194 2.03125,-6.21875 -1.10905,-2.15602 1.07425,-9.42385 5.8125,-19.25 1.85651,-3.85 3.383,-8.3176 3.375,-9.9375 -0.009,-1.83377 0.95436,-3.97636 2.59375,-5.6875 1.64721,-1.71932 2.75951,-4.137 2.96875,-6.46875 0.18395,-2.05001 0.90432,-4.07391 1.59375,-4.5 0.68943,-0.42609 0.94283,-1.08843 0.5625,-1.46875 -0.38032,-0.38032 0.19546,-1.94389 1.28125,-3.46875 1.0858,-1.52486 2.09543,-4.00991 2.21875,-5.5 0.12333,-1.49009 0.76912,-2.91903 1.46875,-3.1875 0.69964,-0.26848 1.3003,-1.44634 1.3125,-2.625 0.0122,-1.17865 0.89321,-3.28125 1.96875,-4.65625 1.07554,-1.375 1.95655,-3.2994 1.96875,-4.28125 0.0122,-0.98185 0.75259,-2.85603 1.625,-4.1875 0.8724,-1.33146 1.30013,-2.87006 0.96875,-3.40625 -0.33138,-0.53618 -0.12147,-1.24829 0.4375,-1.59375 0.55897,-0.34546 1,-1.65538 1,-2.90625 0,-1.25087 0.3375,-2.61251 0.75,-3.03125 0.4125,-0.41874 0.75,-2.42707 0.75,-4.4375 0,-2.92652 0.34891,-3.57901 1.75,-3.34375 2.46219,0.41342 2.19385,-1.22979 -0.75,-4.40625 -2.43885,-2.63157 -2.58193,-2.66635 -3.9375,-0.8125 -2.13247,2.91634 -2.97243,0.95312 -1.15625,-2.6875 0.88239,-1.76878 1.59375,-3.372 1.59375,-3.5625 0,-1.01114 -2.37867,-0.0332 -6.09375,2.5 -4.06828,2.77401 -4.20346,3.02118 -4.5,9.09375 -0.16743,3.42874 -0.72613,6.76376 -1.25,7.40625 -0.52387,0.64249 -1.62153,3.41957 -2.4375,6.1875 -0.81596,2.76794 -2.4286,6.82607 -3.59375,9 -1.16515,2.17392 -2.125,4.71807 -2.125,5.65625 0,0.93819 -0.45,1.97258 -1,2.3125 -0.55,0.33992 -1,1.88192 -1,3.40625 0,1.52433 -1.12731,4.98179 -2.5,7.6875 -1.3727,2.70571 -2.498,5.49524 -2.5,6.1875 -0.002,0.69226 -1.35,3.09724 -3,5.375 -1.65,2.27776 -3,4.79867 -3,5.59375 0,0.79507 -0.79893,2.63385 -1.78125,4.09375 -3.24354,4.82049 -4.36298,7.99468 -5.59375,15.875 -0.31183,1.99656 -1.43672,5.35363 -3.625,10.78125 -0.91661,2.27347 -2.6791,9.57312 -3.34375,13.90625 -0.24554,1.60079 -0.0922,4.07579 0.34375,5.5 0.4359,1.4242 1.36533,6.56906 2.0625,11.40625 0.69717,4.83719 1.66747,9.02973 2.125,9.3125 0.45753,0.28277 0.8125,1.38395 0.8125,2.46875 0,1.0848 0.675,2.24592 1.5,2.5625 0.825,0.31659 1.5,1.02174 1.5,1.59375 0,0.57201 1.575,2.9633 3.5,5.3125 1.925,2.34921 3.5,4.78006 3.5,5.375 0,0.59493 0.39856,1.0625 0.875,1.0625 0.47644,0 3.28894,2.24254 6.25,4.96875 2.96106,2.72622 6.7118,5.25628 8.34375,5.625 1.63194,0.36872 3.65694,1.00158 4.5,1.40625 0.84305,0.40468 4.23125,1.64521 7.53125,2.75 3.3,1.1048 6.0504,2.0544 6.125,2.125 0.0746,0.0706 1.42463,-0.52214 3,-1.34375 1.57537,-0.82161 3.90915,-1.497 5.15625,-1.5 3.77505,-0.0103 21.43919,-4.12236 23.65625,-5.5 1.14028,-0.70854 3.1875,-1.54993 4.5625,-1.875 2.67867,-0.63326 15.3355,-12.23728 18.5625,-17.03125 7.09681,-10.54289 8.26792,-13.07843 8.6875,-18.625 0.18756,-2.4795 0.6368,-4.97482 1,-5.5625 0.60173,-0.97362 0.41287,-4.47758 -0.875,-17.4375 -0.24595,-2.475 -0.55429,-6.3 -0.71875,-8.5 -0.37212,-4.97793 -1.22744,-7.01517 -4.8125,-11.625 C 309.28513,651.8396 308,649.74966 308,649.21875 c 0,-0.53092 -1.82415,-3.05085 -4.0625,-5.59375 -2.23835,-2.5429 -3.80753,-5.04558 -3.46875,-5.59375 0.8508,-1.37662 -1.23472,-5.0625 -2.875,-5.0625 -0.7383,0 -1.90906,-0.675 -2.59375,-1.5 -1.05275,-1.26848 -0.84268,-1.5 1.375,-1.5 1.44234,0 2.625,-0.45 2.625,-1 0,-0.55 -0.63892,-1 -1.4375,-1 -1.56534,0 -7.54145,-7.98359 -7.59375,-10.15625 -0.0443,-1.8371 -2.44059,-4.84375 -3.875,-4.84375 -0.65493,0 -1.87037,-1.57559 -2.6875,-3.53125 -1.20072,-2.87375 -1.86347,-3.45691 -3.5,-2.9375 -1.85385,0.58839 -1.96669,0.35178 -1.34375,-2.96875 0.50337,-2.68319 0.24667,-4.09448 -0.96875,-5.4375 -1.01158,-1.11779 -1.36711,-2.53671 -0.9375,-3.65625 0.54064,-1.40889 0.33451,-1.67562 -0.9375,-1.1875 -2.04377,0.78427 -3.07321,-0.76613 -3.46875,-5.28125 -0.16863,-1.925 -0.40886,-4.577 -0.53125,-5.90625 C 271.47265,579.38982 269,577.88421 269,580.40625 c 0,1.95518 -1.58505,2.0832 -2.3125,0.1875 -0.29411,-0.76645 0.55122,-2.41262 1.875,-3.65625 l 2.40625,-2.28125 -2.6875,-2.46875 c -1.47548,-1.36743 -3.81822,-2.81147 -5.21875,-3.1875 -1.60933,-0.43209 -2.56167,-1.3769 -2.5625,-2.59375 -7.2e-4,-1.05896 -0.33822,-1.825 -0.75,-1.6875 z m -10,19.25 c 1.21995,0 1.26247,0.28005 0.25,1.5 -0.68469,0.825 -1.925,1.5 -2.75,1.5 -1.21995,0 -1.26247,-0.28005 -0.25,-1.5 0.68469,-0.825 1.925,-1.5 2.75,-1.5 z m -33.84375,90.125 c 0.3046,-0.0317 0.5977,0.0665 0.84375,0.3125 0.34317,0.34317 -0.13274,1.38273 -1.0625,2.3125 -1.55894,1.55894 -1.6875,1.55773 -1.6875,0.0313 0,-1.36721 0.99244,-2.56107 1.90625,-2.65625 z"
       id="path2996"
       inkscape:connector-curvature="0"
       sodipodi:nodetypes="ccsssssssssssssscsssssssssssscssssscccsssssssssssssccsssssssssssssssscccssscsssssssssssssssscssssscssscsssscssssssssssssssssssssssssssssssssccssssssssssssssssssscccsssssssscccccsssccssscsccsscsssscccsssssssssssssssssssssscssscsssssscsssscssssscccscssssssssssssssssssssscssssssssssscsssscssscsssssssssssscssssssssscssssssssssssssssssssssssssssssssssssscsssssssssscssscsssssssssssssssscssssssssssscccssssssssccsscc" />
  </g>
</svg>
